<?xml version="1.0" encoding="UTF-8" standalone="no"?>
<svg
   xmlns:dc="http://purl.org/dc/elements/1.1/"
   xmlns:cc="http://creativecommons.org/ns#"
   xmlns:rdf="http://www.w3.org/1999/02/22-rdf-syntax-ns#"
   xmlns:svg="http://www.w3.org/2000/svg"
   xmlns="http://www.w3.org/2000/svg"
   version="1.1"
   id="svg10596"
   viewBox="0 0 256 256"
   height="256"
   width="256">
  <defs
     id="defs10598" />
  <metadata
     id="metadata10601">
    <rdf:RDF>
      <cc:Work
         rdf:about="">
        <dc:format>image/svg+xml</dc:format>
        <dc:type
           rdf:resource="http://purl.org/dc/dcmitype/StillImage" />
        <dc:title></dc:title>
      </cc:Work>
    </rdf:RDF>
  </metadata>
  <g
     transform="translate(0,-796.36216)"
     id="layer1">
    <g
       id="g8966"
       transform="matrix(2,0,0,2,4240.873,-2767.4496)">
      <rect
         style="opacity:1;fill:#1b7cde;fill-opacity:1;stroke:none;stroke-width:2;stroke-linecap:round;stroke-linejoin:miter;stroke-miterlimit:4;stroke-dasharray:none;stroke-dashoffset:0;stroke-opacity:1"
         id="rect4164-7"
         width="128"
         height="128"
         x="-2120.4365"
         y="1781.9059" />
      <g
         id="text5776-5-0"
         style="font-style:normal;font-weight:normal;font-size:27.96613884px;line-height:125%;font-family:sans-serif;letter-spacing:0px;word-spacing:0px;fill:#ffffff;fill-opacity:1;stroke:none;stroke-width:1px;stroke-linecap:butt;stroke-linejoin:miter;stroke-opacity:1">
        <path
           id="path11157"
           style="font-style:normal;font-variant:normal;font-weight:normal;font-stretch:normal;font-family:Fonarto;-inkscape-font-specification:Fonarto;fill:#ffffff;fill-opacity:1"
           d="m -2100.5408,1849.7652 6.7119,0 0,3.5517 -10.4034,0 0,-16.6399 q 0,-1.3983 1.0068,-2.1813 1.0067,-0.7831 2.6847,-0.7551 l 0,16.0246 z" />
        <path
           id="path11159"
           style="font-style:normal;font-variant:normal;font-weight:normal;font-stretch:normal;font-family:Fonarto;-inkscape-font-specification:Fonarto;fill:#ffffff;fill-opacity:1"
           d="m -2084.0277,1838.4948 q 2.2094,0 3.9153,1.0628 1.7339,1.0627 2.7127,2.7127 0.9788,1.65 1.0348,3.6635 0.084,2.0136 -1.0068,3.9433 -0.9229,1.594 -2.4051,2.5449 -1.4822,0.9508 -3.1602,1.1746 -1.678,0.2517 -3.3839,-0.2797 -1.678,-0.5034 -3.0203,-1.8458 -1.5102,-1.5381 -2.0136,-3.5517 -0.5034,-2.0135 0.084,-4.0271 0.2517,-0.811 0.811,-1.3424 0.5873,-0.5313 1.3144,-0.783 0.7272,-0.2517 1.5102,-0.2237 0.7831,0.028 1.4542,0.3355 0.6712,0.2797 1.1187,0.839 0.4754,0.5314 0.5593,1.3144 -0.4195,-0.3076 -1.0068,-0.3076 -0.5873,-0.028 -1.1466,0.2517 -0.5313,0.2517 -0.9229,0.811 -0.3635,0.5314 -0.3635,1.3424 0,1.3983 0.5873,2.3212 0.5873,0.9229 1.4542,1.3983 0.8949,0.4475 1.9017,0.4475 1.0348,0 1.9017,-0.4755 0.8949,-0.4754 1.4822,-1.3983 0.5873,-0.9508 0.5873,-2.3491 0,-1.0907 -0.3915,-1.9297 -0.3916,-0.839 -1.0627,-1.3703 -0.6433,-0.5594 -1.5102,-0.7551 -0.867,-0.2238 -1.8458,-0.028 -0.4195,-0.5034 -1.0347,-0.783 -0.5873,-0.3077 -1.2865,-0.3916 -0.6991,-0.1118 -1.3983,0.028 -0.6991,0.1119 -1.3144,0.4754 1.1187,-1.3424 2.6009,-2.0695 1.4822,-0.7551 3.244,-0.7551 z" />
        <path
           id="path11161"
           style="font-style:normal;font-variant:normal;font-weight:normal;font-stretch:normal;font-family:Fonarto;-inkscape-font-specification:Fonarto;fill:#ffffff;fill-opacity:1"
           d="m -2067.095,1858.9381 q -1.3983,0 -2.7128,-0.3356 -1.2864,-0.3356 -2.2093,-1.0348 -0.9229,-0.6711 -1.3144,-1.7339 -0.3915,-1.0347 0.028,-2.4889 0.4474,0.5034 1.1466,0.9228 0.7271,0.4195 1.5102,0.6992 0.811,0.3076 1.622,0.4754 0.839,0.1678 1.5381,0.1399 1.2865,-0.056 2.0975,-0.4195 0.811,-0.3636 1.2585,-0.9509 0.4754,-0.5593 0.6432,-1.2864 0.1678,-0.7272 0.1678,-1.5102 -1.0627,1.0627 -2.3212,1.5381 -1.2305,0.4475 -2.489,0.3916 -1.2585,-0.028 -2.461,-0.5594 -1.1746,-0.5593 -2.0975,-1.5381 -0.8949,-0.9788 -1.4542,-2.3771 -0.5314,-1.3983 -0.5314,-3.1322 0,-1.678 0.5873,-3.0483 0.5873,-1.3704 1.5661,-2.3212 1.0068,-0.9509 2.2653,-1.4543 1.2864,-0.5034 2.6568,-0.4474 1.3423,0.056 2.1534,0.6152 0.811,0.5314 1.1745,1.2585 0.3916,0.6992 0.3916,1.4542 0.028,0.7551 -0.2238,1.2026 -0.2517,-0.3356 -0.6152,-0.5593 -0.3356,-0.2517 -0.7551,-0.3916 -0.3915,-0.1398 -0.839,-0.1957 -0.4195,-0.056 -0.811,-0.056 -1.2864,0 -2.1534,0.6153 -0.8669,0.6153 -1.3144,1.5381 -0.4475,0.895 -0.4754,1.9577 0,1.0627 0.4195,1.9856 0.4474,0.8949 1.3144,1.5101 0.8949,0.6153 2.2093,0.6153 1.1186,0 1.8458,-0.4475 0.7271,-0.4474 1.1466,-1.1745 0.4474,-0.7551 0.6152,-1.678 0.1958,-0.9509 0.1958,-1.9297 l 0,-4.4186 0,-1.5382 3.6356,0 0,12.8645 q 0,1.65 -0.4754,2.9923 -0.4755,1.3424 -1.4263,2.2933 -0.9229,0.9508 -2.3212,1.4542 -1.3703,0.5034 -3.1881,0.5034 z" />
        <path
           id="path11163"
           style="font-style:normal;font-variant:normal;font-weight:normal;font-stretch:normal;font-family:Fonarto;-inkscape-font-specification:Fonarto;fill:#ffffff;fill-opacity:1"
           d="m -2056.2949,1841.7669 q 0.056,-0.839 0.3356,-1.3983 0.3077,-0.5594 0.7831,-0.8949 0.4754,-0.3356 1.0907,-0.4755 0.6432,-0.1678 1.3983,-0.1678 l 0,14.4865 -3.6077,0 0,-11.55 z m 1.8178,-8.8933 q 0.9509,0 1.6221,0.6992 0.6991,0.6712 0.6991,1.65 0,0.9788 -0.6712,1.678 -0.3915,0.3915 -0.9228,0.5593 -0.5034,0.1398 -1.0348,0.3076 -0.5034,0.1399 -0.9508,0.3636 -0.4195,0.1957 -0.5873,0.6712 -0.1399,-0.4475 -0.3077,-1.1466 -0.1398,-0.6992 -0.1957,-1.4543 -0.028,-0.7551 0.084,-1.4542 0.1398,-0.7271 0.6152,-1.2026 0.6712,-0.6712 1.65,-0.6712 z" />
        <path
           id="path11165"
           style="font-style:normal;font-variant:normal;font-weight:normal;font-stretch:normal;font-family:Fonarto;-inkscape-font-specification:Fonarto;fill:#ffffff;fill-opacity:1"
           d="m -2045.7634,1840.5084 q 0.2237,-0.5034 0.6712,-0.8669 0.4754,-0.3636 1.0347,-0.6153 0.5593,-0.2517 1.1466,-0.3915 0.5873,-0.1399 1.0907,-0.1678 1.0627,-0.056 2.0975,0.3076 1.0347,0.3356 1.9017,1.2025 1.2584,1.3145 1.2584,3.7755 l 0,9.5644 -3.5796,0 q 0,-0.4754 0,-1.2864 0.028,-0.8111 0.028,-1.7619 0,-0.9788 0,-2.0136 0,-1.0347 -0.028,-1.9576 -0.028,-0.9229 -0.084,-1.65 -0.056,-0.7271 -0.1399,-1.0627 -0.2237,-0.8949 -0.8669,-1.3424 -0.6153,-0.4475 -1.3424,-0.4475 -0.9508,0 -1.4822,0.5314 -0.5314,0.5034 -0.5314,1.3424 -0.3355,-0.1119 -0.6711,-0.4475 -0.3356,-0.3635 -0.5034,-0.7551 l 0,0.7551 0,10.0958 -3.6077,0 0,-14.4865 3.6077,0 0,1.678 z" />
        <path
           id="path11167"
           style="font-style:normal;font-variant:normal;font-weight:normal;font-stretch:normal;font-family:Fonarto;-inkscape-font-specification:Fonarto;fill:#ffffff;fill-opacity:1"
           d="m -2023.8227,1847.7237 q -1.5102,0.3915 -2.7686,0.2796 -1.2305,-0.1118 -2.0416,-0.5873 -0.783,-0.5034 -1.0627,-1.3144 -0.2517,-0.839 0.1678,-1.8737 0.867,0.7271 2.0136,0.811 1.1466,0.056 2.2093,-0.056 0.8949,-0.084 1.3424,-0.3915 0.4754,-0.3077 0.5873,-0.6992 0.1118,-0.4195 -0.084,-0.8669 -0.1958,-0.4475 -0.6432,-0.8111 -0.4195,-0.3635 -1.0628,-0.5873 -0.6152,-0.2237 -1.3703,-0.1957 -0.811,0.056 -1.5381,0.3915 -0.7272,0.3356 -1.2865,0.9229 -0.5593,0.5873 -0.8949,1.3703 -0.3356,0.7831 -0.3636,1.7339 -0.028,0.7831 0.1678,1.5382 0.2238,0.7551 0.6433,1.3983 0.4195,0.6152 1.0067,1.0627 0.5873,0.4195 1.3424,0.5313 1.0627,0.1958 2.1814,-0.1398 1.1186,-0.3356 1.9856,-1.2305 l 2.9364,1.4263 q -1.1466,1.7059 -2.7127,2.461 -1.5661,0.7271 -3.5797,0.7271 -1.8737,0 -3.3,-0.6432 -1.3983,-0.6712 -2.3491,-1.7619 -0.9229,-1.0906 -1.3983,-2.461 -0.4475,-1.3983 -0.4195,-2.8246 0.028,-1.4542 0.5593,-2.8245 0.5314,-1.3984 1.5381,-2.4611 1.1187,-1.2025 2.6009,-1.7059 1.5102,-0.5034 3.0763,-0.5034 1.7339,0 2.9923,0.5873 1.2585,0.5873 2.0416,1.5102 0.783,0.8949 1.0347,2.0135 0.2517,1.0907 -0.056,2.1255 -0.2797,1.0347 -1.1466,1.8737 -0.867,0.811 -2.3492,1.1746 z" />
        <path
           id="path11169"
           style="font-style:normal;font-variant:normal;font-weight:normal;font-stretch:normal;font-family:Fonarto;-inkscape-font-specification:Fonarto;fill:#ffffff;fill-opacity:1"
           d="m -2017.7453,1838.7745 3.1322,0 0,1.8458 q 0.4754,-0.9788 1.2026,-1.5382 0.755,-0.5873 1.65,-0.6432 1.1745,-0.084 1.9017,0.4475 0.7271,0.5034 1.0067,1.2584 0.3077,0.7272 0.1678,1.5102 -0.1398,0.7551 -0.7551,1.2026 -0.2516,-0.6992 -0.9788,-0.895 -0.6991,-0.2237 -1.4822,0.056 -0.783,0.2517 -1.4262,0.9788 -0.6153,0.7271 -0.7272,1.9017 -0.056,0.6712 -0.056,1.3424 0,0.6432 0,1.2025 l 0,5.8729 -3.6356,0 0,-14.5424 z" />
      </g>
    </g>
  </g>
</svg>
